<svg width="165" height="158" viewBox="0 0 165 158" fill="none" xmlns="http://www.w3.org/2000/svg">
<path fill-rule="evenodd" clip-rule="evenodd" d="M159.253 119.415L159.254 119.416C160.243 121.81 161.203 124.133 162.016 126.506C162.143 126.877 162.3 127.254 162.46 127.636L162.46 127.636C163.307 129.661 164.2 131.798 160.752 133.528C159.407 134.203 160.813 135.974 161.845 137.275C162.002 137.473 162.151 137.66 162.279 137.831C164.356 140.582 165.084 143.334 161.434 145.038C160.045 145.686 160.434 146.147 160.809 146.592C160.931 146.736 161.051 146.879 161.109 147.025C161.568 148.187 162.097 149.32 162.626 150.454C162.841 150.914 163.055 151.375 163.266 151.837C164.764 155.133 164.342 157.349 160.098 157.181C149.134 156.747 138.239 155.541 127.34 154.311C125.696 154.126 124.045 154.055 122.391 153.985C119.959 153.881 117.521 153.777 115.086 153.306C113.188 152.94 111.235 152.827 109.274 152.713L109.274 152.713C107.961 152.637 106.643 152.561 105.337 152.408C104.845 152.351 104.333 152.269 103.811 152.185C100.649 151.679 97.0952 151.109 95.049 155.518C94.3511 157.022 91.7912 157.304 89.6974 157.237C85.2044 157.091 80.6968 157.04 76.2079 157.238C72.3844 157.407 69.4229 156.88 66.9023 153.273C65.4074 151.133 62.7237 151.597 60.249 152.024C59.5134 152.151 58.7963 152.275 58.1343 152.326C54.6976 152.592 51.2733 153.093 47.8513 153.593L47.8512 153.593H47.8512C43.3624 154.248 38.8776 154.904 34.374 155.03C29.6783 155.161 25.0161 155.625 20.3578 156.089H20.3577C15.3746 156.586 10.396 157.082 5.38551 157.169C-0.190685 157.266 -1.15831 155.705 1.2073 150.82C1.4408 150.338 1.73529 149.856 2.02889 149.376C3.29181 147.308 4.53837 145.267 0.84486 143.37C-0.246559 142.81 0.171828 141.877 0.771721 140.87C1.75777 139.213 2.61865 137.483 3.50729 135.696L3.50741 135.696C3.87403 134.959 4.24538 134.212 4.63219 133.458C0.581692 133.236 -0.373443 131.491 1.27958 127.44C5.45103 117.219 9.30467 106.863 13.0467 96.4743C14.4068 92.6987 16.1708 91.0532 20.6155 91.0376C35.6177 90.9848 50.0455 93.6734 63.7184 99.5814C71.9005 103.117 77.1735 110.154 81.6834 117.97C83.1674 116.302 84.4535 114.476 85.748 112.639C87.9641 109.494 90.2047 106.314 93.5042 103.827C100.063 98.8825 107.424 96.3237 114.946 94.3996C124.582 91.9345 134.508 90.547 144.591 91.134C147.562 91.3069 149.255 91.9574 150.244 95.2252C151.441 99.1834 152.931 103.053 154.457 107.015L154.457 107.016L154.457 107.016C155.348 109.329 156.25 111.673 157.114 114.085C157.813 115.929 158.541 117.69 159.253 119.415ZM48.3327 100.865C59.8704 103.986 69.9803 108.427 75.8201 119.356C77.9111 123.269 79.1093 127.33 79.0991 131.759C79.0921 134.794 79.0936 137.83 79.0953 141.041C79.0961 142.498 79.0968 143.992 79.0968 145.538C57.2123 132.346 33.682 127.974 9.0498 126.914C9.88054 124.464 10.7076 122.026 11.5317 119.596L11.5353 119.586L11.5365 119.582C13.8155 112.863 16.0722 106.21 18.3238 99.5551C19.0041 97.5445 20.3732 97.1645 22.433 97.123C29.3208 96.9841 35.9836 98.3545 42.8192 99.7604L42.8193 99.7605C44.6423 100.135 46.4776 100.513 48.3327 100.865ZM106.57 103.942C97.3935 107.253 90.7718 112.816 86.7052 122.068C84.8364 127.138 84.9679 132.159 85.1001 137.21C85.1672 139.772 85.2345 142.341 85.0409 144.928C106.441 130.582 130.46 128.382 155.001 126.837C154.083 124.367 153.147 121.912 152.213 119.461C149.824 113.191 147.447 106.955 145.412 100.609C144.476 97.6923 143.23 97.0842 140.622 97.1662C128.887 97.5352 117.636 99.9486 106.57 103.942Z" fill="white"/>
<path d="M55.1532 53.5L82 7L108.847 53.5H55.1532Z" stroke="white" stroke-width="7"/>
<path d="M55.1532 22.5L82 69L108.847 22.5H55.1532Z" stroke="white" stroke-width="7"/>
</svg>
